<?xml version="1.0" encoding="iso-8859-1"?>
<!-- Uploaded to: SVG Repo, www.svgrepo.com, Generator: SVG Repo Mixer Tools -->
<svg fill="#C779D3" height="800px" width="800px" version="1.1" id="Layer_1" xmlns="http://www.w3.org/2000/svg" xmlns:xlink="http://www.w3.org/1999/xlink" 
	 viewBox="0 0 480 480" xml:space="preserve">
<g>
	<g>
		<path stroke="#C779D3" stroke-width="4" d="M456,420H304v-8c0-13.68-9.744-24-22.664-24H280v-8c0-13.68-9.744-24-22.664-24H256v-32c0-31.4-24.008-56-54.664-56H176
			v-16c0-4.416-3.584-8-8-8s-8,3.584-8,8v16h-22.664C106.256,268,80,293.648,80,324v32.128C66.872,356.824,56,367.424,56,380v8.128
			C42.872,388.824,32,399.424,32,412v8h-8c-13.232,0-24,10.768-24,24v24c0,4.416,3.584,8,8,8h464c4.424,0,8-3.584,8-8v-24
			C480,430.768,469.232,420,456,420z M96,324c0-21.68,18.928-40,41.336-40h64c21.68,0,38.664,17.568,38.664,40v32h-32v-8
			c0-4.416-3.584-8-8-8s-8,3.584-8,8v8H96V324z M72,380c0-4.04,4.624-8,9.336-8H88h160h9.336c4.6,0,6.664,4.016,6.664,8v8H72V380z
			 M48,412c0-4.04,4.624-8,9.336-8H64h208h9.336c4.6,0,6.664,4.016,6.664,8v8H48V412z M464,460H16v-16c0-4.408,3.592-8,8-8h16h256
			h160c4.416,0,8,3.592,8,8V460z"/>
	</g>
</g>
<g>
	<g>
		<path stroke="#C779D3" stroke-width="4" d="M472,84h-80c-4.424,0-8,3.584-8,8v8h-44.048l-118.96-18.512c-4.04-0.608-8.128,0.624-11.504,2.936L93.856,164h-0.008
			c-3.064,0-5.312,4.928-6.336,8.504l-5.52,19.32c-2.608,9.2,0.312,18.664,7.632,24.832c7.312,6.16,17.216,7.376,25.84,3.24
			l95.208-45.704l47.856,15.984L238.4,210.28c-4.664,4.672-7.224,11.136-7.008,17.736s3.176,12.888,8.144,17.256l2.368,2.08
			c4.512,3.976,10.144,6,15.832,6c4.272,0,8.576-1.152,12.448-3.496l51.248-31.032L384,223.432V236c0,4.416,3.576,8,8,8h80
			c4.424,0,8-3.584,8-8V92C480,87.584,476.424,84,472,84z M384,207.384l-63.944-4.696c-1.672-0.128-3.312,0.272-4.728,1.136
			l-53.44,32.352c-2.992,1.816-6.784,1.488-9.424-0.832l-2.376-2.08c-1.672-1.48-2.64-3.52-2.712-5.752
			c-0.072-2.232,0.76-4.336,2.336-5.912l29.272-29.264c1.96-1.96,2.768-4.792,2.136-7.496c-0.64-2.696-2.624-4.872-5.248-5.752
			l-63.208-21.12c-0.824-0.28-1.68-0.416-2.536-0.416c-1.184,0-2.368,0.264-3.464,0.792l-98.128,47.088
			c-4.328,2.072-7.688-0.312-8.616-1.096s-3.304-3.688-2-8.304l6.08-19.464v-0.008l115.08-79.264l119.304,18.608
			c0.4,0.064,0.536,0.096,0.952,0.096H384V207.384z M464,228h-64v-12V108v-8h64V228z"/>
	</g>
</g>
<g>
	<g>
		<path stroke="#C779D3" stroke-width="4" d="M136,300h-8c-4.416,0-8,3.584-8,8c0,4.416,3.584,8,8,8h8c4.416,0,8-3.584,8-8C144,303.584,140.416,300,136,300z"/>
	</g>
</g>
<g>
	<g>
		<path stroke="#C779D3" stroke-width="4" d="M64,4c-4.416,0-8,3.584-8,8v22.4c0,4.416,3.584,8,8,8s8-3.584,8-8V12C72,7.584,68.416,4,64,4z"/>
	</g>
</g>
<g>
	<g>
		<path stroke="#C779D3" stroke-width="4" d="M64,93.6c-4.416,0-8,3.584-8,8V124c0,4.416,3.584,8,8,8s8-3.584,8-8v-22.4C72,97.184,68.416,93.6,64,93.6z"/>
	</g>
</g>
<g>
	<g>
		<path stroke="#C779D3" stroke-width="4" d="M120,60H97.6c-4.416,0-8,3.584-8,8s3.584,8,8,8H120c4.416,0,8-3.584,8-8S124.416,60,120,60z"/>
	</g>
</g>
<g>
	<g>
		<path stroke="#C779D3" stroke-width="4" d="M30.4,60H8c-4.416,0-8,3.584-8,8s3.584,8,8,8h22.4c4.416,0,8-3.584,8-8S34.816,60,30.4,60z"/>
	</g>
</g>
<g>
	<g>
		<path stroke="#C779D3" stroke-width="4" d="M109.256,101.944l-15.84-15.84c-3.128-3.128-8.184-3.128-11.312,0s-3.128,8.184,0,11.312l15.84,15.84
			c1.56,1.56,3.608,2.344,5.656,2.344c2.048,0,4.096-0.784,5.656-2.344C112.384,110.128,112.384,105.072,109.256,101.944z"/>
	</g>
</g>
<g>
	<g>
		<path stroke="#C779D3" stroke-width="4" d="M45.896,38.584l-15.84-15.84c-3.128-3.128-8.184-3.128-11.312,0c-3.128,3.128-3.128,8.184,0,11.312l15.84,15.84
			c1.568,1.568,3.608,2.344,5.656,2.344c2.048,0,4.096-0.784,5.656-2.344C49.024,46.768,49.024,41.712,45.896,38.584z"/>
	</g>
</g>
<g>
	<g>
		<path stroke="#C779D3" stroke-width="4" d="M45.896,86.104c-3.128-3.128-8.184-3.128-11.312,0l-15.84,15.84c-3.128,3.128-3.128,8.184,0,11.312
			c1.56,1.56,3.608,2.344,5.656,2.344c2.048,0,4.096-0.784,5.656-2.344l15.84-15.84C49.024,94.288,49.024,89.232,45.896,86.104z"/>
	</g>
</g>
<g>
	<g>
		<path stroke="#C779D3" stroke-width="4" d="M109.256,22.744c-3.128-3.128-8.184-3.128-11.312,0l-15.84,15.84c-3.128,3.128-3.128,8.184,0,11.312
			c1.56,1.568,3.608,2.344,5.656,2.344c2.048,0,4.096-0.784,5.656-2.344l15.84-15.84C112.384,30.928,112.384,25.872,109.256,22.744z
			"/>
	</g>
</g>
<g>
	<g>
		<path stroke="#C779D3" stroke-width="4" d="M344,341.872c-4.424,0-8,3.584-8,8V372c0,4.416,3.576,8,8,8s8-3.584,8-8v-22.128C352,345.456,348.424,341.872,344,341.872
			z"/>
	</g>
</g>
<g>
	<g>
		<path stroke="#C779D3" stroke-width="4" d="M408,308h-24c-4.424,0-8,3.584-8,8c0,4.416,3.576,8,8,8h24c4.424,0,8-3.584,8-8C416,311.584,412.424,308,408,308z"/>
	</g>
</g>
<g>
	<g>
		<path stroke="#C779D3" stroke-width="4" d="M389.416,350.12l-16.968-15.648c-3.24-2.992-8.296-2.784-11.304,0.464c-2.984,3.24-2.784,8.304,0.464,11.304
			l16.968,15.648C380.12,363.304,382.064,364,384,364c2.16,0,4.304-0.864,5.88-2.576
			C392.872,358.176,392.672,353.112,389.416,350.12z"/>
	</g>
</g>
<g>
	<g>
		<path stroke="#C779D3" stroke-width="4" d="M389.888,270.928c-3-3.24-8.056-3.448-11.312-0.456l-16.968,15.648c-3.248,3-3.456,8.056-0.464,11.304
			c1.584,1.712,3.728,2.576,5.888,2.576c1.936,0,3.88-0.696,5.424-2.12l16.968-15.648
			C392.672,279.232,392.88,274.176,389.888,270.928z"/>
	</g>
</g>
</svg>