<?xml version="1.0" encoding="iso-8859-1"?>
<!-- Generator: Adobe Illustrator 24.1.2, SVG Export Plug-In . SVG Version: 6.00 Build 0)  -->
<svg version="1.1" baseProfile="basic" id="Layer_1"
	 xmlns="http://www.w3.org/2000/svg" xmlns:xlink="http://www.w3.org/1999/xlink" x="0px" y="0px" viewBox="0 0 48 48"
	 xml:space="preserve">
<path style="fill-rule:evenodd;clip-rule:evenodd;fill:#212121;" d="M38,42H10c-2.209,0-4-1.791-4-4V10c0-2.209,1.791-4,4-4h28
	c2.209,0,4,1.791,4,4v28C42,40.209,40.209,42,38,42z"/>
<g>
	<path style="fill:#FFFFFF;" d="M34.257,34h-6.437L13.829,14h6.437L34.257,34z M28.587,32.304h2.563L19.499,15.696h-2.563
		L28.587,32.304z"/>
	<polygon style="fill:#FFFFFF;" points="15.866,34 23.069,25.656 22.127,24.407 13.823,34 	"/>
	<polygon style="fill:#FFFFFF;" points="24.45,21.721 25.355,23.01 33.136,14 31.136,14 	"/>
</g>
</svg>