<svg width="2642" height="2642" viewBox="0 0 2642 2642" fill="none" xmlns="http://www.w3.org/2000/svg">
<g clip-path="url(#clip0_222_1137)">
<rect width="2642" height="2642" fill="white"/>
<path d="M176.5 1465.5C245.5 1459 246 1394.5 250.5 1394.5C255 1394.5 252.5 1448 321 1465.5C272 1483 262 1499 250 1537.5C240.5 1476.5 201.5 1470 176.5 1465.5Z" fill="#121212"/>
<path d="M2309 1466C2378 1459.5 2378.5 1395 2383 1395C2387.5 1395 2385 1448.5 2453.5 1466C2404.5 1483.5 2394.5 1499.5 2382.5 1538C2373 1477 2334 1470.5 2309 1466Z" fill="#121212"/>
<path d="M393.559 1265.27L194.08 1227.63L201.448 1188.59L333.424 1138.24L328.299 1163.83L224.197 1068.05L231.242 1030.71L430.721 1068.36L422.815 1110.25L354.422 1097.34C337.324 1094.12 322.007 1090.83 308.472 1087.49C294.973 1083.96 281.676 1079.88 268.582 1075.24L282.944 1072.64L362.539 1148.16L358.99 1166.97L258.129 1207.25L245.08 1199.77C258.203 1200.09 271.581 1201.13 285.213 1202.92C298.691 1204.48 314.643 1207 333.072 1210.48L401.464 1223.38L393.559 1265.27Z" fill="#121212"/>
<path d="M471.194 910.855L438.944 891.894L456.141 862.645L345.644 797.68L328.447 826.929L296.198 807.969L352.638 711.971L384.887 730.932L367.691 760.181L478.188 825.146L495.384 795.897L527.634 814.857L471.194 910.855Z" fill="#121212"/>
<path d="M607.943 672.988L475.997 518.718L505.529 493.459L689.4 535.774L683.23 541.052C678.746 537 674.462 533.032 670.377 529.148C666.167 525.117 661.956 521.087 657.745 517.056C653.556 512.753 649.304 508.376 644.989 503.926C640.695 499.203 636.213 494.26 631.542 489.096C626.745 483.785 621.645 477.971 616.242 471.654L580.24 429.56L612.636 401.851L744.582 556.122L714.61 581.757L528.032 539.848L536.595 532.906C543.864 539.917 550.044 545.953 555.134 551.012C560.246 555.799 564.645 560.05 568.332 563.765C572.019 567.481 575.192 570.745 577.852 573.558C580.659 576.245 583.194 578.911 585.456 581.556C587.865 584.075 590.326 586.803 592.839 589.742L640.339 645.279L607.943 672.988Z" fill="#121212"/>
<path d="M873.944 457.148L860.207 422.351L891.767 409.892L844.701 290.666L813.141 303.125L799.405 268.328L902.986 227.438L916.722 262.235L885.163 274.693L932.228 393.92L963.788 381.461L977.525 416.258L873.944 457.148Z" fill="#121212"/>
<path d="M1130.48 358.364L1116.79 155.826L1160.19 152.893L1173.88 355.43L1130.48 358.364ZM1145.01 276.578L1142.49 239.253L1247.23 232.173L1249.75 269.498L1145.01 276.578ZM1139.4 193.538L1136.76 154.477L1253.65 146.575L1256.29 185.636L1139.4 193.538Z" fill="#121212"/>
<path d="M1426.4 342.381L1476.88 145.757L1519.01 156.573L1478.27 315.277L1567.32 338.135L1557.58 376.056L1426.4 342.381Z" fill="#121212"/>
<path d="M1702.43 417.237L1722.1 385.414L1750.96 403.251L1818.35 294.213L1789.48 276.376L1809.15 244.552L1903.88 303.096L1884.21 334.919L1855.35 317.082L1787.96 426.12L1816.83 443.957L1797.16 475.78L1702.43 417.237Z" fill="#121212"/>
<path d="M1990.86 631.636C1981.26 620.253 1974.34 608.137 1970.09 595.288C1966.1 582.463 1964.67 569.512 1965.79 556.435C1967.17 543.382 1971.13 530.822 1977.64 518.756C1984.31 506.565 1993.48 495.548 2005.16 485.705C2016.54 476.112 2028.72 469.261 2041.7 465.155C2054.82 460.923 2067.98 459.439 2081.18 460.703C2094.53 461.842 2107.31 465.608 2119.52 472.001C2131.74 478.394 2142.64 487.283 2152.24 498.666C2158.47 506.058 2163.54 514.174 2167.45 523.014C2171.63 531.878 2174.29 540.886 2175.43 550.038C2176.69 559.339 2176.47 568.376 2174.76 577.148L2134.13 575.739C2134.69 569.201 2134.61 562.951 2133.88 556.989C2133.43 551.051 2132.06 545.377 2129.78 539.969C2127.77 534.584 2124.77 529.526 2120.78 524.795C2115.42 518.438 2109.2 513.447 2102.1 509.823C2095.12 506.347 2087.75 504.345 2079.97 503.819C2072.34 503.168 2064.44 504.14 2056.26 506.735C2048.35 509.354 2040.78 513.715 2033.53 519.82C2026.14 526.049 2020.41 532.901 2016.34 540.375C2012.42 547.723 2010.13 555.348 2009.45 563.248C2008.93 571.024 2009.97 578.865 2012.59 586.772C2015.48 594.702 2019.98 602.289 2026.08 609.533C2030.07 614.264 2034.6 618.286 2039.67 621.6C2044.73 624.914 2050.01 627.422 2055.49 629.124C2061.09 630.974 2066.69 632.07 2072.29 632.41L2059.99 670.463C2053.01 670.279 2045.34 668.527 2036.97 665.207C2028.74 662.035 2020.54 657.562 2012.39 651.79C2004.39 645.894 1997.21 639.175 1990.86 631.636Z" fill="#121212"/>
<path d="M2203.62 812.152L2237.41 789.794L2370.08 850.27L2388.35 899.787L2203.62 812.152ZM2135.96 802.188L2326.41 731.919L2341.47 772.729L2151.02 842.998L2135.96 802.188ZM2181.54 925.708L2249.92 819.492L2284.47 838.581L2199.4 974.137L2181.54 925.708Z" fill="#121212"/>
<path d="M2241.67 1175.79C2241.45 1163.23 2242.8 1151.7 2245.71 1141.21C2248.63 1130.91 2253.01 1121.65 2258.86 1113.43C2264.72 1105.4 2271.84 1098.12 2280.24 1091.59L2311.74 1118.31C2298.76 1128.01 2289.93 1137.54 2285.26 1146.9C2280.78 1156.46 2278.64 1166.74 2278.83 1177.76C2278.94 1183.75 2279.8 1189.05 2281.43 1193.67C2283.25 1198.47 2285.73 1202.2 2288.87 1204.85C2292.01 1207.5 2295.71 1208.79 2299.96 1208.72C2303.06 1208.66 2305.85 1207.94 2308.34 1206.54C2311.02 1205.14 2313.3 1203.17 2315.19 1200.62C2317.28 1198.07 2319.06 1195.04 2320.55 1191.54C2322.23 1188.03 2323.61 1184.14 2324.7 1179.86C2325.98 1175.59 2326.96 1170.93 2327.64 1165.89C2329.97 1155.02 2332.8 1145.5 2336.14 1137.32C2339.67 1129.14 2344 1122.29 2349.13 1116.79C2354.44 1111.28 2360.46 1107.12 2367.18 1104.3C2373.9 1101.67 2381.52 1100.28 2390.02 1100.13C2398.72 1099.98 2406.78 1101.77 2414.19 1105.51C2421.8 1109.25 2428.36 1114.45 2433.89 1121.12C2439.43 1127.99 2443.72 1135.84 2446.77 1144.68C2449.83 1153.72 2451.45 1163.26 2451.62 1173.31C2451.84 1185.68 2450.57 1196.53 2447.84 1205.86C2445.29 1215.19 2441.47 1223.28 2436.36 1230.13C2431.27 1237.18 2424.99 1243.09 2417.53 1247.86L2390.38 1220.78C2395.72 1216.63 2400.18 1212.1 2403.77 1207.21C2407.36 1202.5 2409.98 1197.33 2411.62 1191.7C2413.46 1186.25 2414.33 1180.63 2414.23 1174.83C2414.12 1168.45 2413.16 1162.96 2411.34 1158.35C2409.71 1153.74 2407.33 1150.1 2404.19 1147.45C2401.05 1144.99 2397.26 1143.8 2392.81 1143.88C2389.33 1143.94 2386.25 1144.86 2383.58 1146.65C2380.9 1148.43 2378.53 1150.99 2376.46 1154.31C2374.58 1157.63 2372.91 1161.62 2371.45 1166.29C2369.98 1170.96 2368.72 1176.1 2367.65 1181.73C2365.71 1192.4 2363.08 1202.01 2359.74 1210.58C2356.41 1219.15 2352.28 1226.47 2347.36 1232.55C2342.64 1238.82 2336.92 1243.65 2330.21 1247.06C2323.7 1250.46 2316.28 1252.23 2307.97 1252.37C2294.25 1252.61 2282.49 1249.53 2272.72 1243.12C2262.94 1236.72 2255.34 1227.76 2249.92 1216.26C2244.69 1204.75 2241.94 1191.26 2241.67 1175.79Z" fill="#121212"/>
<circle cx="1320.5" cy="1308.5" r="845.5" fill="#121212"/>
<path d="M1531 1569V1324.46V1316.82H1787.76V1189.97H1483.62L1393.45 1310.71V1569H1531Z" fill="#F0F0F0"/>
<path d="M938 1153.29V1562.89V1569H1074.02V1318.35L938 1144.12V1153.29Z" fill="#00D1D5"/>
<path d="M1225.33 1183.86L1066.38 983.642H938V1034.08L1228.39 1406.99L1455.09 1116.61H1786.23V1113.55V976H1390.39L1225.33 1183.86Z" fill="#00D1D5"/>
<path d="M1367.91 1499.03C1367.91 1497.49 1371.35 1488.16 1373.06 1483.59C1375.63 1482.73 1378.21 1485.3 1378.21 1486.16C1378.21 1487.02 1373.06 1500.74 1373.06 1501.6C1373.06 1502.46 1367.91 1501.6 1367.91 1499.03Z" fill="#B6B6B6"/>
<path d="M1361.61 1518.43C1361.56 1516.9 1364.65 1507.45 1366.2 1502.82C1368.74 1501.87 1371.41 1504.35 1371.44 1505.2C1371.47 1506.06 1366.82 1519.96 1366.85 1520.82C1366.88 1521.68 1361.71 1521.01 1361.61 1518.43Z" fill="#B6B6B6"/>
<path fill-rule="evenodd" clip-rule="evenodd" d="M1369.63 1521.33C1369.14 1520.84 1372.9 1509.08 1376.33 1498.37L1376.33 1498.37L1376.33 1498.37C1377.67 1494.18 1378.96 1490.15 1379.92 1487.02C1386.1 1487.02 1387.65 1491.02 1387.65 1493.02C1386.75 1496.11 1385.53 1500.13 1384.27 1504.31L1384.27 1504.31C1381.26 1514.24 1377.99 1525.06 1378.14 1526.35C1377.73 1526.05 1376.33 1525.27 1374.78 1524.41L1374.78 1524.41C1372.58 1523.18 1370.07 1521.78 1369.63 1521.33ZM1378.21 1526.48C1378.31 1526.5 1378.28 1526.45 1378.14 1526.35C1378.15 1526.43 1378.17 1526.47 1378.21 1526.48ZM1332.74 1528.2C1327.59 1531.63 1325.02 1529.05 1325.02 1526.48C1325.02 1522.66 1331.81 1521.22 1334.52 1520.65C1334.85 1520.58 1335.12 1520.52 1335.31 1520.47C1337.03 1520.05 1362.19 1524.19 1374.78 1527.34V1533.34C1373.95 1533.14 1340.27 1529.03 1332.74 1528.2ZM1374.78 1533.34C1374.8 1533.34 1374.8 1533.34 1374.78 1533.34V1533.34ZM1351.05 1533.78C1338.06 1531.33 1331.08 1530.01 1330.17 1535.06V1555.65L1322.45 1552.22L1325.88 1549.64L1326.73 1536.77L1307.86 1552.22C1307.86 1555.93 1308.89 1562.51 1313.01 1559.08C1317.13 1555.65 1318.73 1554.22 1319.01 1553.93L1330.17 1560.8V1565.94H1374.78V1537.63C1365.39 1536.5 1357.48 1535 1351.05 1533.78L1351.05 1533.78L1351.05 1533.78ZM1337.89 1541.92C1339.31 1541.92 1340.46 1540.39 1340.46 1538.49C1340.46 1536.6 1339.31 1535.06 1337.89 1535.06C1336.47 1535.06 1335.31 1536.6 1335.31 1538.49C1335.31 1540.39 1336.47 1541.92 1337.89 1541.92Z" fill="#B6B6B6"/>
<g filter="url(#filter0_f_222_1137)">
<path d="M1385.42 1423.5C1386.8 1419.49 1384.85 1417.09 1383.71 1416.81L1076.03 1430.18L1074.32 1565.52C1176.88 1520.13 1384.05 1427.51 1385.42 1423.5Z" fill="url(#paint0_linear_222_1137)"/>
</g>
<mask id="path-21-inside-1_222_1137" fill="white">
<path fill-rule="evenodd" clip-rule="evenodd" d="M1378.64 1444.17C1386.37 1444.17 1392.63 1434.48 1392.63 1422.52C1392.63 1410.57 1386.37 1400.88 1378.64 1400.88C1370.92 1400.88 1364.65 1410.57 1364.65 1422.52C1364.65 1434.48 1370.92 1444.17 1378.64 1444.17ZM1378.64 1437.51C1384.44 1437.51 1389.14 1430.43 1389.14 1421.69C1389.14 1412.96 1384.44 1405.88 1378.64 1405.88C1372.85 1405.88 1368.15 1412.96 1368.15 1421.69C1368.15 1430.43 1372.85 1437.51 1378.64 1437.51Z"/>
</mask>
<path fill-rule="evenodd" clip-rule="evenodd" d="M1378.64 1444.17C1386.37 1444.17 1392.63 1434.48 1392.63 1422.52C1392.63 1410.57 1386.37 1400.88 1378.64 1400.88C1370.92 1400.88 1364.65 1410.57 1364.65 1422.52C1364.65 1434.48 1370.92 1444.17 1378.64 1444.17ZM1378.64 1437.51C1384.44 1437.51 1389.14 1430.43 1389.14 1421.69C1389.14 1412.96 1384.44 1405.88 1378.64 1405.88C1372.85 1405.88 1368.15 1412.96 1368.15 1421.69C1368.15 1430.43 1372.85 1437.51 1378.64 1437.51Z" fill="#D9D9D9"/>
<path d="M1391.63 1422.52C1391.63 1428.34 1390.11 1433.55 1387.7 1437.28C1385.28 1441.03 1382.05 1443.17 1378.64 1443.17V1445.17C1382.96 1445.17 1386.73 1442.46 1389.38 1438.37C1392.03 1434.27 1393.63 1428.66 1393.63 1422.52H1391.63ZM1378.64 1401.88C1382.05 1401.88 1385.28 1404.02 1387.7 1407.76C1390.11 1411.5 1391.63 1416.71 1391.63 1422.52H1393.63C1393.63 1416.38 1392.03 1410.78 1389.38 1406.68C1386.73 1402.59 1382.96 1399.88 1378.64 1399.88V1401.88ZM1365.65 1422.52C1365.65 1416.71 1367.18 1411.5 1369.59 1407.76C1372.01 1404.02 1375.23 1401.88 1378.64 1401.88V1399.88C1374.33 1399.88 1370.55 1402.59 1367.91 1406.68C1365.26 1410.78 1363.65 1416.38 1363.65 1422.52H1365.65ZM1378.64 1443.17C1375.23 1443.17 1372.01 1441.03 1369.59 1437.28C1367.18 1433.55 1365.65 1428.34 1365.65 1422.52H1363.65C1363.65 1428.66 1365.26 1434.27 1367.91 1438.37C1370.55 1442.46 1374.33 1445.17 1378.64 1445.17V1443.17ZM1388.14 1421.69C1388.14 1425.89 1387 1429.64 1385.23 1432.32C1383.45 1435 1381.1 1436.51 1378.64 1436.51V1438.51C1381.98 1438.51 1384.88 1436.47 1386.9 1433.43C1388.92 1430.38 1390.14 1426.23 1390.14 1421.69H1388.14ZM1378.64 1406.88C1381.1 1406.88 1383.45 1408.38 1385.23 1411.06C1387 1413.74 1388.14 1417.49 1388.14 1421.69H1390.14C1390.14 1417.15 1388.92 1413 1386.9 1409.95C1384.88 1406.91 1381.98 1404.88 1378.64 1404.88V1406.88ZM1369.15 1421.69C1369.15 1417.49 1370.28 1413.74 1372.06 1411.06C1373.84 1408.38 1376.19 1406.88 1378.64 1406.88V1404.88C1375.3 1404.88 1372.41 1406.91 1370.39 1409.95C1368.37 1413 1367.15 1417.15 1367.15 1421.69H1369.15ZM1378.64 1436.51C1376.19 1436.51 1373.84 1435 1372.06 1432.32C1370.28 1429.64 1369.15 1425.89 1369.15 1421.69H1367.15C1367.15 1426.23 1368.37 1430.38 1370.39 1433.43C1372.41 1436.47 1375.3 1438.51 1378.64 1438.51V1436.51Z" fill="#BFBFBF" mask="url(#path-21-inside-1_222_1137)"/>
<path d="M1385.27 1420.66C1385.27 1423.12 1384.69 1425.32 1383.8 1426.89C1382.89 1428.47 1381.71 1429.32 1380.52 1429.32C1379.33 1429.32 1378.15 1428.47 1377.24 1426.89C1376.35 1425.32 1375.77 1423.12 1375.77 1420.66C1375.77 1418.2 1376.35 1416 1377.24 1414.43C1378.15 1412.85 1379.33 1412 1380.52 1412C1381.71 1412 1382.89 1412.85 1383.8 1414.43C1384.69 1416 1385.27 1418.2 1385.27 1420.66Z" fill="#D9D9D9" stroke="#BFBFBF"/>
<path d="M2632 1308.5C2632 2025.55 2045.14 2607 1321 2607C596.865 2607 10 2025.55 10 1308.5C10 591.448 596.865 10 1321 10C2045.14 10 2632 591.448 2632 1308.5Z" stroke="#121212" stroke-width="20"/>
<path d="M302.058 1768.17L287.681 1738.83L299.522 1733.03L313.898 1762.36C316.683 1768.04 319.842 1772.2 323.377 1774.83C326.911 1777.47 330.682 1778.8 334.688 1778.83C338.719 1778.91 342.795 1777.94 346.918 1775.92C350.689 1774.08 353.827 1771.51 356.332 1768.22C358.862 1764.99 360.27 1761.12 360.556 1756.61C360.893 1752.08 359.669 1746.98 356.885 1741.3L344.172 1715.35L246.282 1763.33L239.149 1748.77L348.954 1694.96L368.801 1735.46C372.866 1743.75 374.87 1751.47 374.813 1758.61C374.756 1765.74 372.916 1772.04 369.291 1777.49C365.717 1782.92 360.688 1787.23 354.202 1790.4C347.163 1793.85 340.428 1795.32 333.997 1794.79C327.566 1794.26 321.639 1791.77 316.216 1787.32C310.843 1782.85 306.123 1776.46 302.058 1768.17Z" fill="black"/>
<path d="M430.669 1857.69L454.45 1890.45C459.844 1897.88 463.267 1904.98 464.718 1911.74C466.202 1918.55 465.694 1924.91 463.195 1930.8C460.773 1936.71 456.345 1942 449.911 1946.67C445.38 1949.96 440.56 1952.04 435.451 1952.92C430.42 1953.8 425.34 1953.47 420.213 1951.94C415.163 1950.42 410.277 1947.74 405.555 1943.9L401.464 1941.26L379.114 1910.48L389.686 1902.59L406.559 1925.84C409.98 1930.55 413.64 1933.88 417.541 1935.82C421.487 1937.73 425.44 1938.46 429.401 1938C433.361 1937.55 437.04 1936.09 440.439 1933.62C444.245 1930.86 447.032 1927.7 448.801 1924.13C450.57 1920.56 451.057 1916.61 450.263 1912.27C449.546 1907.95 447.362 1903.28 443.711 1898.25L429.453 1878.6L341.235 1942.64L331.713 1929.53L430.669 1857.69ZM373.699 1987.36L401.09 1930.74L411.075 1944.35L384.678 2000.77L383.862 2001.37L373.699 1987.36Z" fill="black"/>
<path d="M551.736 2014.03L464.041 2099.25L452.745 2087.62L540.44 2002.4L551.736 2014.03Z" fill="black"/>
<path d="M592.053 2195.4L683.82 2135.11L697.738 2145.8L587.337 2215.18L577.414 2207.56L592.053 2195.4ZM628.547 2092.64L593.651 2196.63L585.871 2214.06L575.949 2206.43L614.629 2081.94L628.547 2092.64Z" fill="black"/>
<path d="M805.152 2229.55L717.799 2309.73L703.122 2302.09L800.915 2215.14L810.376 2220.06L805.152 2229.55ZM783.808 2344.08L799.266 2226.49L804.044 2216.76L813.506 2221.69L798.559 2351.75L783.808 2344.08ZM802.84 2302.95L796.715 2314.72L735.773 2283.01L741.898 2271.24L802.84 2302.95Z" fill="black"/>
<path d="M977.785 2296.19L940.183 2412.54L924.999 2407.63L962.601 2291.28L977.785 2296.19ZM1015.18 2308.27L1011.1 2320.9L921.2 2291.84L925.281 2279.22L1015.18 2308.27Z" fill="black"/>
<path d="M1159.49 2453.04L1157.5 2466.07L1093.49 2456.3L1095.48 2443.26L1159.49 2453.04ZM1115.19 2335.91L1096.73 2456.79L1080.7 2454.34L1099.17 2333.46L1115.19 2335.91ZM1159.56 2395.87L1157.56 2408.9L1102.02 2400.42L1104.01 2387.39L1159.56 2395.87ZM1175.13 2345.07L1173.13 2358.18L1109.95 2348.53L1111.95 2335.42L1175.13 2345.07Z" fill="black"/>
<path d="M1429.55 2352.33L1444.83 2473.66L1428.99 2475.65L1413.72 2354.33L1429.55 2352.33ZM1468.55 2347.43L1470.21 2360.59L1376.47 2372.39L1374.81 2359.23L1468.55 2347.43Z" fill="black"/>
<path d="M1646.54 2362.65L1650.41 2375.25L1587.14 2394.65L1583.27 2382.05L1646.54 2362.65ZM1570.27 2331.04L1606.11 2447.95L1590.62 2452.7L1554.77 2335.79L1570.27 2331.04ZM1644.62 2308.25L1680.47 2425.15L1665.05 2429.88L1629.2 2312.97L1644.62 2308.25Z" fill="black"/>
<path d="M1860.45 2337.33L1866.39 2349.11L1808.57 2378.27L1802.63 2366.5L1860.45 2337.33ZM1756.42 2267.62L1811.5 2376.8L1797.03 2384.1L1741.95 2274.92L1756.42 2267.62ZM1827.34 2290.73L1833.28 2302.5L1783.12 2327.81L1777.18 2316.03L1827.34 2290.73ZM1810.56 2240.31L1816.54 2252.16L1759.47 2280.94L1753.5 2269.09L1810.56 2240.31Z" fill="black"/>
<path d="M1934.62 2179.55L1968.19 2293.26L1954.88 2303.09L1919.8 2177.01L1928.39 2170.68L1934.62 2179.55ZM2028.07 2249.1L1929.28 2183.48L1922.64 2174.92L1931.23 2168.58L2041.46 2239.23L2028.07 2249.1ZM1999.51 2213.91L2007.39 2224.59L1952.1 2265.37L1944.23 2254.69L1999.51 2213.91Z" fill="black"/>
<path d="M2069.85 2053.59L2158.28 2138.05L2147.26 2149.59L2058.83 2065.13L2069.85 2053.59ZM2097 2025.17L2106.59 2034.33L2041.33 2102.66L2031.74 2093.49L2097 2025.17Z" fill="black"/>
<path d="M2156.15 1961.27L2178.89 1927.78C2184.05 1920.18 2189.56 1914.55 2195.43 1910.89C2201.33 1907.18 2207.48 1905.5 2213.88 1905.85C2220.26 1906.12 2226.74 1908.49 2233.31 1912.96C2237.94 1916.1 2241.54 1919.93 2244.09 1924.44C2246.63 1928.87 2248.05 1933.76 2248.35 1939.1C2248.63 1944.37 2247.77 1949.88 2245.76 1955.62L2244.67 1960.36L2223.3 1991.84L2212.3 1984.57L2228.43 1960.81C2231.71 1955.99 2233.59 1951.42 2234.09 1947.09C2234.55 1942.73 2233.89 1938.76 2232.12 1935.19C2230.35 1931.62 2227.73 1928.66 2224.25 1926.3C2220.36 1923.66 2216.44 1922.11 2212.48 1921.66C2208.53 1921.2 2204.65 1922.09 2200.84 1924.31C2197.02 1926.45 2193.36 1930.09 2189.87 1935.23L2176.23 1955.31L2266.42 2016.55L2257.31 2029.96L2156.15 1961.27ZM2297.46 1970.83L2234.9 1964.29L2244.32 1950.27L2306.35 1955.95L2307.18 1956.51L2297.46 1970.83Z" fill="black"/>
<path d="M2386.78 1786.74L2398.75 1792.27L2371.61 1851.06L2359.64 1845.53L2386.78 1786.74ZM2261.96 1796.83L2372.98 1848.08L2366.19 1862.8L2255.17 1811.54L2261.96 1796.83ZM2331.87 1770.83L2343.84 1776.35L2320.29 1827.36L2308.32 1821.84L2331.87 1770.83ZM2287.38 1741.77L2299.43 1747.34L2272.63 1805.36L2260.59 1799.8L2287.38 1741.77Z" fill="black"/>
</g>
<defs>
<filter id="filter0_f_222_1137" x="1062.32" y="1404.81" width="335.58" height="172.708" filterUnits="userSpaceOnUse" color-interpolation-filters="sRGB">
<feFlood flood-opacity="0" result="BackgroundImageFix"/>
<feBlend mode="normal" in="SourceGraphic" in2="BackgroundImageFix" result="shape"/>
<feGaussianBlur stdDeviation="6" result="effect1_foregroundBlur_222_1137"/>
</filter>
<linearGradient id="paint0_linear_222_1137" x1="1385.42" y1="1419.32" x2="1074.5" y2="1502.57" gradientUnits="userSpaceOnUse">
<stop stop-color="#D9D9D9" stop-opacity="0.85"/>
<stop offset="1" stop-color="#737373" stop-opacity="0.1"/>
</linearGradient>
<clipPath id="clip0_222_1137">
<rect width="2642" height="2642" fill="white"/>
</clipPath>
</defs>
</svg>
