<svg width="1500" height="1500" viewBox="0 0 1500 1500" fill="none" xmlns="http://www.w3.org/2000/svg">
<rect width="1500" height="1500" fill="#121212"/>
<path d="M976.237 1148.24V819.892V809.631H1321V639.302H912.621L791.543 801.423V1148.24H976.237Z" fill="#F0F0F0"/>
<path d="M180 590.05V1140.03V1148.24H362.642V811.683L180 577.737V590.05Z" fill="#00D1D5"/>
<path d="M565.806 631.094L352.381 362.261H180V429.982L569.91 930.709L874.308 540.799H1318.95V536.694V352H787.439L565.806 631.094Z" fill="#00D1D5"/>
<path d="M757.257 1054.28C757.257 1052.22 761.865 1039.69 764.169 1033.55C767.624 1032.4 771.08 1035.85 771.08 1037C771.08 1038.16 764.169 1056.59 764.169 1057.74C764.169 1058.89 757.257 1057.74 757.257 1054.28Z" fill="#B6B6B6"/>
<path d="M748.797 1080.34C748.723 1078.28 752.876 1065.59 754.957 1059.37C758.369 1058.1 761.947 1061.42 761.989 1062.58C762.03 1063.73 755.787 1082.39 755.828 1083.55C755.87 1084.7 748.921 1083.79 748.797 1080.34Z" fill="#B6B6B6"/>
<path fill-rule="evenodd" clip-rule="evenodd" d="M768.556 1053.4L768.556 1053.4C770.356 1047.78 772.089 1042.37 773.384 1038.16C781.678 1038.16 783.751 1043.53 783.751 1046.22C782.551 1050.37 780.917 1055.77 779.218 1061.38L779.218 1061.38C775.184 1074.72 770.789 1089.24 770.992 1090.97C770.435 1090.57 768.561 1089.52 766.481 1088.36L766.48 1088.36L766.48 1088.36L766.479 1088.36L766.479 1088.36C763.525 1086.71 760.157 1084.83 759.561 1084.23C758.898 1083.57 763.951 1067.79 768.555 1053.4L768.556 1053.4ZM771.08 1091.14C771.214 1091.17 771.172 1091.1 770.992 1090.97C771.004 1091.08 771.033 1091.14 771.08 1091.14ZM710.028 1093.45C703.117 1098.06 699.661 1094.6 699.661 1091.14C699.661 1086.02 708.785 1084.09 712.417 1083.32L712.417 1083.32L712.418 1083.32C712.866 1083.22 713.231 1083.14 713.484 1083.08C715.788 1082.51 749.577 1088.07 766.472 1092.3V1100.35C765.364 1100.08 720.145 1094.57 710.028 1093.45ZM766.472 1100.36C766.5 1100.36 766.5 1100.36 766.472 1100.35V1100.36ZM734.608 1100.95C717.173 1097.66 707.805 1095.89 706.572 1102.66V1130.31L696.205 1125.7L700.813 1122.25L701.965 1104.97L676.622 1125.7C676.622 1130.69 678.005 1139.53 683.534 1134.92C689.063 1130.31 691.213 1128.39 691.597 1128.01L706.572 1137.22V1144.13H766.472V1106.12C753.875 1104.59 743.251 1102.58 734.608 1100.95L734.608 1100.95L734.608 1100.95ZM716.94 1111.88C718.848 1111.88 720.396 1109.82 720.396 1107.27C720.396 1104.73 718.848 1102.66 716.94 1102.66C715.031 1102.66 713.484 1104.73 713.484 1107.27C713.484 1109.82 715.031 1111.88 716.94 1111.88Z" fill="#B6B6B6"/>
<g filter="url(#filter0_f_222_1157)">
<path d="M780.769 952.868C782.61 947.483 780.002 944.268 778.467 943.894L365.337 961.842L363.036 1143.57C500.746 1082.62 778.928 958.252 780.769 952.868Z" fill="url(#paint0_linear_222_1157)"/>
</g>
<mask id="path-8-inside-1_222_1157" fill="white">
<path fill-rule="evenodd" clip-rule="evenodd" d="M771.663 980.619C782.038 980.619 790.449 967.608 790.449 951.559C790.449 935.51 782.038 922.5 771.663 922.5C761.288 922.5 752.877 935.51 752.877 951.559C752.877 967.608 761.288 980.619 771.663 980.619ZM771.663 971.677C779.444 971.677 785.752 962.169 785.752 950.441C785.752 938.713 779.444 929.206 771.663 929.206C763.882 929.206 757.574 938.713 757.574 950.441C757.574 962.169 763.882 971.677 771.663 971.677Z"/>
</mask>
<path fill-rule="evenodd" clip-rule="evenodd" d="M771.663 980.619C782.038 980.619 790.449 967.608 790.449 951.559C790.449 935.51 782.038 922.5 771.663 922.5C761.288 922.5 752.877 935.51 752.877 951.559C752.877 967.608 761.288 980.619 771.663 980.619ZM771.663 971.677C779.444 971.677 785.752 962.169 785.752 950.441C785.752 938.713 779.444 929.206 771.663 929.206C763.882 929.206 757.574 938.713 757.574 950.441C757.574 962.169 763.882 971.677 771.663 971.677Z" fill="#D9D9D9"/>
<path d="M789.449 951.559C789.449 959.42 787.387 966.49 784.107 971.564C780.82 976.649 776.398 979.619 771.663 979.619V981.619C777.303 981.619 782.274 978.083 785.786 972.65C789.305 967.207 791.449 959.748 791.449 951.559H789.449ZM771.663 923.5C776.398 923.5 780.82 926.47 784.107 931.554C787.387 936.629 789.449 943.699 789.449 951.559H791.449C791.449 943.371 789.305 935.911 785.786 930.468C782.274 925.035 777.303 921.5 771.663 921.5V923.5ZM753.877 951.559C753.877 943.699 755.939 936.629 759.219 931.554C762.506 926.47 766.928 923.5 771.663 923.5V921.5C766.023 921.5 761.052 925.035 757.54 930.468C754.021 935.911 751.877 943.371 751.877 951.559H753.877ZM771.663 979.619C766.928 979.619 762.506 976.649 759.219 971.564C755.939 966.49 753.877 959.42 753.877 951.559H751.877C751.877 959.748 754.021 967.207 757.54 972.65C761.052 978.083 766.023 981.619 771.663 981.619V979.619ZM784.752 950.441C784.752 956.136 783.219 961.247 780.793 964.904C778.361 968.569 775.113 970.677 771.663 970.677V972.677C775.994 972.677 779.791 970.031 782.459 966.01C785.132 961.982 786.752 956.474 786.752 950.441H784.752ZM771.663 930.206C775.113 930.206 778.361 932.314 780.793 935.978C783.219 939.636 784.752 944.746 784.752 950.441H786.752C786.752 944.408 785.132 938.901 782.459 934.873C779.791 930.852 775.994 928.206 771.663 928.206V930.206ZM758.574 950.441C758.574 944.746 760.107 939.636 762.534 935.978C764.965 932.314 768.213 930.206 771.663 930.206V928.206C767.332 928.206 763.535 930.852 760.867 934.873C758.194 938.901 756.574 944.408 756.574 950.441H758.574ZM771.663 970.677C768.213 970.677 764.965 968.569 762.534 964.904C760.107 961.247 758.574 956.136 758.574 950.441H756.574C756.574 956.474 758.194 961.982 760.867 966.01C763.535 970.031 767.332 972.677 771.663 972.677V970.677Z" fill="#BFBFBF" mask="url(#path-8-inside-1_222_1157)"/>
<path d="M780.729 949.057C780.729 952.381 779.956 955.365 778.732 957.502C777.5 959.652 775.874 960.851 774.185 960.851C772.496 960.851 770.869 959.652 769.637 957.502C768.413 955.365 767.64 952.381 767.64 949.057C767.64 945.733 768.413 942.748 769.637 940.612C770.869 938.462 772.496 937.262 774.185 937.262C775.874 937.262 777.5 938.462 778.732 940.612C779.956 942.748 780.729 945.733 780.729 949.057Z" fill="#D9D9D9" stroke="#BFBFBF"/>
<defs>
<filter id="filter0_f_222_1157" x="351.036" y="931.894" width="442.367" height="223.675" filterUnits="userSpaceOnUse" color-interpolation-filters="sRGB">
<feFlood flood-opacity="0" result="BackgroundImageFix"/>
<feBlend mode="normal" in="SourceGraphic" in2="BackgroundImageFix" result="shape"/>
<feGaussianBlur stdDeviation="6" result="effect1_foregroundBlur_222_1157"/>
</filter>
<linearGradient id="paint0_linear_222_1157" x1="780.769" y1="947.259" x2="363.28" y2="1059.04" gradientUnits="userSpaceOnUse">
<stop stop-color="#D9D9D9" stop-opacity="0.85"/>
<stop offset="1" stop-color="#737373" stop-opacity="0.1"/>
</linearGradient>
</defs>
</svg>
